<?xml version="1.0" standalone="no"?><!DOCTYPE svg PUBLIC "-//W3C//DTD SVG 1.1//EN" "http://www.w3.org/Graphics/SVG/1.1/DTD/svg11.dtd"><svg width="100%" height="100%" viewBox="0 0 1170 600" version="1.1" xmlns="http://www.w3.org/2000/svg" xmlns:xlink="http://www.w3.org/1999/xlink" xml:space="preserve" style="fill-rule:evenodd;clip-rule:evenodd;stroke-linejoin:round;stroke-miterlimit:1.41421;"><g><path d="M801.875,50.6805c-34.4028,-32 -78.7361,-47.9861 -133.028,-47.9861c-26.8056,0 -52.7083,4.91664 -77.6805,14.75c-24.9861,9.83334 -46.6667,23.5 -65.0417,41c-46.2639,44.2362 -73.2778,96.4584 -81.1806,156.583c-7.48609,-63.5 -35.9305,-118.319 -85.5,-164.347c-34.4028,-32 -78.7361,-47.9861 -133.028,-47.9861c-26.8194,0 -52.7083,4.91664 -77.6806,14.75c-24.9861,9.83334 -46.6667,23.5 -65.0556,41c-55.7917,53.375 -83.6806,118.306 -83.6806,194.806c0,69.1667 19.0278,126.958 57.0833,173.431c24.9306,30.375 54.9306,51.5833 90.0139,63.625c2.83333,0.972223 7.29167,-0.347217 13.1806,-3.48611l-4.72221,-38.7639c-41.6945,-30.3611 -62.5695,-94.8472 -62.5695,-193.528c0,-56.2083 7.65278,-102.708 22.9861,-139.486c21.8055,-52.75 57.6528,-79.1389 107.514,-79.1389c86.5972,0 129.875,69.4167 129.875,208.264c0,22.4167 -0.90278,43.0833 -2.68056,62.0278l22.6389,17.7917c81.5556,-49.9722 140.597,-46.3056 153.014,-44.8195l9.36111,-6.63891c-0.166639,-5.87498 -0.277774,-11.8472 -0.277774,-18c0,-56.2083 7.66665,-102.708 22.9861,-139.486c21.8056,-52.75 57.6528,-79.1389 107.514,-79.1389c86.5972,0 129.875,69.4167 129.875,208.264c0,78.4861 -10.9028,135.708 -32.7084,171.611c-9.16665,15.1528 -20.4444,27.0278 -33.8195,35.6389l2.23611,40.6528c5.58338,-1.80556 11.1111,-3.80556 16.5139,-6.09722c27.2361,-11.4444 52.2361,-30.0278 74.9445,-55.7361c20.5278,-23.7778 36.5416,-50.1389 48,-79.0833c12.3334,-30.9028 18.5,-64.7222 18.5,-101.458c0,-78.4583 -29.1945,-144.792 -87.5833,-199.014Z" style="fill:#00447c;fill-rule:nonzero;"/><path d="M1033.97,48.9305l0,-27.9028l-146.806,0l0,27.9028c13.0139,0 21.125,3.125 24.3889,9.38886c4.1111,7.79171 6.16665,21.0695 6.16665,39.8889l0,324.528c0,17.9306 -2.05555,30.9167 -6.16665,38.9167c-3.47226,6.47222 -11.6111,9.72222 -24.3889,9.72222l0,27.8889l146.806,0l0,-27.8889c-13,0 -21.1389,-3.13889 -24.375,-9.40278c-1.98612,-3.75001 -3.45834,-8.83333 -4.48615,-15.1111c-0.0972112,-0.611115 -0.194422,-1.2361 -0.277774,-1.84722c-0.916672,-6.43056 -1.41665,-14.0139 -1.41665,-22.9167l0,-324.542l-0.666682,0c0.0694275,-19.0833 2.22225,-32.4028 6.56948,-39.875c3.27778,-5.84717 11.5,-8.74996 24.6527,-8.74996Z" style="fill:#00447c;fill-rule:nonzero;"/><path d="M1149.17,432.292c8.77775,27.4444 14.4305,51.8056 19.9582,80.5556c-5.9583,-2.16666 -11.3889,-4.02777 -16.2917,-5.58333c-4.90278,-1.56944 -9.72214,-3.36111 -14.4444,-5.38889c-5.02777,-1.58333 -11.0695,-4 -18.1389,-7.29167l-30.9723,-15.0278c-45.6666,-22.9722 -81.625,-36.0556 -107.861,-39.1944c-19.8611,-2.40277 -41.75,-0.527779 -65.6667,5.58333c-24.2361,6.56945 -52.0833,18.1667 -83.5555,34.8056c-28.2084,14.5833 -53.9722,22.2778 -78.3194,27.8472c-24.5694,5.30555 -47.75,5.16667 -69.9584,3.9861c-80.6945,-4.27778 -138.417,-41.8472 -157.361,-57.6667c-30.1528,-27.0278 -51.9306,-63.8056 -48.4445,-95.8889c4.34723,-40.2083 22.1667,-54.9722 35.8056,-70.7639l-2.86112,1.27776c-83.9306,19.9722 -137.653,57.3056 -254.694,148.625c-24.375,18.9583 -58.1389,48.7778 -97,84.9306c-4.93054,-1.76389 -9.55555,-3.30555 -13.7361,-4.63889c-4.90278,-1.56945 -9.72222,-3.36111 -14.4306,-5.3889c-5.04167,-1.58333 -11.0833,-4 -18.1528,-7.27777l-25.9306,-14.4028c48.0972,-45.0833 94.5,-88.9028 129.986,-113.986c168.667,-120.014 289.458,-177.097 400.514,-153.361c40.2361,8.59722 85.5,39.125 109.153,71.25c-28.3472,-8.87499 -57.0555,-11 -85.9861,-6.43053c-22.9167,3.63887 -41.4028,11.3056 -55.4583,23.0278c-15.9861,13.1805 -22.5417,28.8194 -19.6945,46.8889c0.680542,4.20833 1.88891,8.44444 3.65276,12.7639c4.80556,13.5695 12.0417,24.0695 21.6806,32.6945c0,0 38.4445,33.3333 92.625,35.3194c22.2223,0.805553 45.3889,1.31944 69.9584,-3.9861c24.3472,-5.58333 50.1111,-13.2778 78.3194,-27.8472c31.4723,-16.6528 59.3194,-28.25 83.5556,-34.8194c23.9166,-6.11111 45.8055,-7.97222 65.6666,-5.59723c17.7083,2.13888 39.9445,8.76389 66.4861,19.9167c0,0 22.1389,10.0556 29.0139,13.5139c0,0 51.5001,24.4167 56.4028,25.9722c4.91664,1.56945 10.2361,3.41667 16.1805,5.58333Z" style="fill:#00afdb;fill-rule:nonzero;"/><path d="M26.9444,575.792c0,5.29167 1.22222,9.29167 3.66667,12.0139c2.44444,2.73611 5.55556,4.09722 9.31945,4.09722c3.76389,0 6.84722,-1.34722 9.26389,-4.05556c2.41667,-2.70833 3.625,-6.76389 3.625,-12.1806c0,-5.34722 -1.18056,-9.34722 -3.52778,-11.9722c-2.34722,-2.63889 -5.47222,-3.95834 -9.36111,-3.95834c-3.90278,0 -7.04167,1.33334 -9.41667,4c-2.38889,2.66667 -3.56945,6.68056 -3.56945,12.0556ZM17.2083,576.111c0,-4.76389 0.708334,-8.75 2.13889,-11.9861c1.05556,-2.375 2.51389,-4.51389 4.34722,-6.40277c1.83333,-1.88889 3.84722,-3.29167 6.04167,-4.20833c2.91667,-1.22222 6.27778,-1.84722 10.0833,-1.84722c6.88889,0 12.3889,2.13889 16.5278,6.40278c4.13889,4.27778 6.20833,10.2083 6.20833,17.8194c0,7.54167 -2.05555,13.4444 -6.16666,17.6944c-4.09722,4.26389 -9.58333,6.38889 -16.4444,6.38889c-6.95833,0 -12.4861,-2.11111 -16.5833,-6.34722c-4.11111,-4.25 -6.15278,-10.0833 -6.15278,-17.5139Z" style="fill:#00937f;fill-rule:nonzero;"/><path d="M99.7778,581.972l9.13889,2.90278c-1.40278,5.11111 -3.72222,8.90278 -6.98612,11.375c-3.26389,2.48611 -7.40278,3.72222 -12.4167,3.72222c-6.19444,0 -11.2917,-2.11111 -15.2917,-6.34722c-4,-4.25 -5.98611,-10.0417 -5.98611,-17.3889c0,-7.77778 2,-13.8056 6.01389,-18.1111c4.0139,-4.30556 9.29167,-6.45833 15.8333,-6.45833c5.72222,0 10.3611,1.69444 13.9306,5.06945c2.125,2 3.72222,4.86111 4.77778,8.59722l-9.34722,2.25c-0.541663,-2.41667 -1.69444,-4.33334 -3.44444,-5.73611c-1.75,-1.40278 -3.875,-2.11111 -6.38889,-2.11111c-3.45834,0 -6.26389,1.25 -8.41667,3.73611c-2.15278,2.48611 -3.22223,6.5 -3.22223,12.0694c0,5.88889 1.05556,10.0972 3.18056,12.6111c2.125,2.5 4.875,3.75 8.27777,3.75c2.5,0 4.65278,-0.791667 6.45834,-2.38889c1.80555,-1.59722 3.09722,-4.11111 3.88889,-7.54167Z" style="fill:#00937f;fill-rule:nonzero;"/><path d="M117.056,599.194l0,-46.7083l34.6111,0l0,7.90278l-25.1667,0l0,10.3611l23.4028,0l0,7.90278l-23.4028,0l0,12.6389l26.0417,0l0,7.90278l-35.4861,0Z" style="fill:#00937f;fill-rule:nonzero;"/><path d="M185.347,580.667l-6.47222,-17.2778l-6.30555,17.2778l12.7778,0ZM202.681,599.194l-10.2639,0l-4.04166,-10.6111l-18.6944,0l-3.86111,10.6111l-10.0139,0l18.1806,-46.7083l10.0139,0l18.6806,46.7083Z" style="fill:#00937f;fill-rule:nonzero;"/><path d="M207.792,599.194l0,-46.7083l9.13889,0l19.1806,31.3056l0,-31.3056l8.72223,0l0,46.7083l-9.41668,0l-18.9028,-30.6528l0,30.6528l-8.72221,0Z" style="fill:#00937f;fill-rule:nonzero;"/><path d="M280.778,575.792c0,5.29167 1.22223,9.29167 3.66669,12.0139c2.44443,2.73611 5.55553,4.09722 9.31943,4.09722c3.7639,0 6.86111,-1.34722 9.27779,-4.05556c2.40278,-2.70833 3.61112,-6.76389 3.61112,-12.1806c0,-5.34722 -1.16669,-9.34722 -3.5278,-11.9722c-2.34722,-2.63889 -5.47222,-3.95834 -9.36111,-3.95834c-3.88889,0 -7.02778,1.33334 -9.41668,4c-2.375,2.66667 -3.56944,6.68056 -3.56944,12.0556ZM271.042,576.111c0,-4.76389 0.708326,-8.75 2.13887,-11.9861c1.06945,-2.375 2.51392,-4.51389 4.34723,-6.40277c1.84724,-1.88889 3.86111,-3.29167 6.05558,-4.20833c2.90276,-1.22222 6.26386,-1.84722 10.0694,-1.84722c6.8889,0 12.4028,2.13889 16.5278,6.40278c4.13888,4.27778 6.20832,10.2083 6.20832,17.8194c0,7.54167 -2.05555,13.4444 -6.15279,17.6944c-4.1111,4.26389 -9.58331,6.38889 -16.4583,6.38889c-6.94443,0 -12.4722,-2.11111 -16.5833,-6.34722c-4.09721,-4.25 -6.15276,-10.0833 -6.15276,-17.5139Z" style="fill:#00937f;fill-rule:nonzero;"/><path d="M333.208,578.819l0,12.4722l8.7361,0c3.38891,0 5.55557,-0.0972221 6.47224,-0.291666c1.3889,-0.25 2.54167,-0.875 3.41667,-1.86111c0.888888,-0.986111 1.31944,-2.30556 1.31944,-3.95833c0,-1.40278 -0.333341,-2.58333 -1.01388,-3.56944c-0.680574,-0.972223 -1.66667,-1.68055 -2.94444,-2.125c-1.29169,-0.444444 -4.08335,-0.666666 -8.37501,-0.666666l-7.61112,0ZM333.208,560.264l0,10.7778l6.18057,0c3.68055,0 5.95833,-0.0555555 6.84722,-0.166667c1.61111,-0.194444 2.88887,-0.749999 3.80554,-1.66667c0.930564,-0.916666 1.3889,-2.13889 1.3889,-3.63889c0,-1.44445 -0.388908,-2.61111 -1.19445,-3.51389c-0.791677,-0.90278 -1.97223,-1.44445 -3.55555,-1.63889c-0.930564,-0.0972231 -3.61112,-0.152779 -8.05556,-0.152779l-5.41668,0ZM323.764,552.486l18.6805,0c3.69444,0 6.45835,0.152779 8.26391,0.458332c1.81942,0.305557 3.44442,0.944448 4.88888,1.93056c1.43054,0.972219 2.62499,2.26389 3.58334,3.88889c0.958316,1.625 1.43054,3.44444 1.43054,5.47222c0,2.18056 -0.583331,4.18056 -1.76388,6.01389c-1.18055,1.81945 -2.7778,3.19445 -4.79167,4.09722c2.83333,0.833333 5.01388,2.25 6.54167,4.25c1.52779,2 2.29168,4.34722 2.29168,7.04167c0,2.125 -0.48612,4.19444 -1.47222,6.20833c-1.00002,2 -2.34725,3.61111 -4.05556,4.81944c-1.70835,1.19444 -3.81947,1.93056 -6.31946,2.20833c-1.56943,0.166667 -5.36111,0.277778 -11.375,0.319444l-15.9028,0l0,-46.7083Z" style="fill:#00937f;fill-rule:nonzero;"/><path d="M368.458,583.958l9.18058,-0.874999c0.555547,3.08333 1.66664,5.33333 3.3611,6.79167c1.69446,1.44444 3.95832,2.15278 6.83333,2.15278c3.04168,0 5.31944,-0.638888 6.86111,-1.91667c1.54168,-1.29167 2.30554,-2.79167 2.30554,-4.51389c0,-1.09722 -0.319417,-2.04167 -0.972207,-2.81944c-0.638898,-0.777779 -1.77778,-1.44445 -3.38888,-2.02778c-1.09723,-0.375001 -3.61112,-1.05556 -7.54169,-2.02778c-5.05555,-1.25 -8.61111,-2.79167 -10.6389,-4.61111c-2.87501,-2.58333 -4.30555,-5.70833 -4.30555,-9.40278c0,-2.375 0.680542,-4.61111 2.02777,-6.68056c1.34722,-2.06945 3.29167,-3.65278 5.81945,-4.73611c2.54167,-1.08333 5.6111,-1.625 9.19444,-1.625c5.87502,0 10.2778,1.29167 13.25,3.86111c2.95833,2.56944 4.5139,6 4.66668,10.3056l-9.44446,0.416664c-0.402768,-2.40278 -1.26387,-4.125 -2.5972,-5.19445c-1.31944,-1.04167 -3.31945,-1.56944 -5.97223,-1.56944c-2.73612,0 -4.87499,0.555555 -6.43056,1.68055c-0.999991,0.722226 -1.5,1.69444 -1.5,2.90278c0,1.11111 0.472228,2.05556 1.40279,2.84722c1.19445,0.999999 4.08332,2.04167 8.66667,3.125c4.58333,1.08333 7.9861,2.19444 10.1805,3.36111c2.20833,1.15278 3.91668,2.73611 5.16669,4.73611c1.23609,2.01389 1.8611,4.48611 1.8611,7.44445c0,2.66667 -0.736109,5.18056 -2.22222,7.51389c-1.5,2.33333 -3.59723,4.06944 -6.31946,5.20833c-2.7222,1.13889 -6.11111,1.69444 -10.1666,1.69444c-5.9028,0 -10.4445,-1.36111 -13.6111,-4.09722c-3.16668,-2.72222 -5.05555,-6.70833 -5.66667,-11.9444Z" style="fill:#00937f;fill-rule:nonzero;"/><path d="M414.431,599.194l0,-46.7083l34.5972,0l0,7.90278l-25.1528,0l0,10.3611l23.4028,0l0,7.90278l-23.4028,0l0,12.6389l26.0417,0l0,7.90278l-35.4861,0Z" style="fill:#00937f;fill-rule:nonzero;"/><path d="M467.403,572.236l6.97225,0c4.52776,0 7.3472,-0.180556 8.47222,-0.569445c1.12499,-0.375001 2.01387,-1.04167 2.65277,-1.97222c0.625006,-0.944444 0.958316,-2.11111 0.958316,-3.5c0,-1.58333 -0.430552,-2.84722 -1.26387,-3.81945c-0.847212,-0.958331 -2.0278,-1.56944 -3.55555,-1.81944c-0.763893,-0.111111 -3.05557,-0.166667 -6.87501,-0.166667l-7.36113,0l0,11.8472ZM457.972,599.194l0,-46.7083l19.8472,0c5.00002,0 8.625,0.416668 10.8889,1.25c2.2639,0.84722 4.08335,2.33333 5.43057,4.48611c1.36112,2.13889 2.04166,4.59722 2.04166,7.36111c0,3.5 -1.02777,6.40278 -3.08332,8.68056c-2.05555,2.27778 -5.12501,3.72222 -9.22222,4.31944c2.04166,1.18056 3.72222,2.5 5.04166,3.91667c1.33333,1.41667 3.125,3.95833 5.375,7.58333l5.70831,9.11111l-11.2917,0l-6.79166,-10.1806c-2.43057,-3.625 -4.09724,-5.91667 -4.98613,-6.84722c-0.90278,-0.944444 -1.8472,-1.59722 -2.84719,-1.94444c-1.00002,-0.347221 -2.58334,-0.527777 -4.76389,-0.527777l-1.91669,0l0,19.5l-9.43054,0Z" style="fill:#00937f;fill-rule:nonzero;"/><path d="M515.833,599.194l-16.6945,-46.7083l10.2222,0l11.8333,34.5694l11.4028,-34.5694l10.0278,0l-16.6527,46.7083l-10.1389,0Z" style="fill:#00937f;fill-rule:nonzero;"/><path d="M567.361,580.667l-6.47221,-17.2778l-6.30557,17.2778l12.7778,0ZM584.694,599.194l-10.25,0l-4.05553,-10.6111l-18.6806,0l-3.87503,10.6111l-9.99997,0l18.1667,-46.7083l10.0139,0l18.6806,46.7083Z" style="fill:#00937f;fill-rule:nonzero;"/><path d="M595.417,599.194l0,-38.8056l-13.875,0l0,-7.90278l37.1527,0l0,7.90278l-13.8333,0l0,38.8056l-9.44443,0Z" style="fill:#00937f;fill-rule:nonzero;"/><path d="M631.375,575.792c0,5.29167 1.20837,9.29167 3.66669,12.0139c2.44446,2.73611 5.54167,4.09722 9.31943,4.09722c3.7639,0 6.84725,-1.34722 9.26393,-4.05556c2.41661,-2.70833 3.62498,-6.76389 3.62498,-12.1806c0,-5.34722 -1.18059,-9.34722 -3.52777,-11.9722c-2.34725,-2.63889 -5.47225,-3.95834 -9.36114,-3.95834c-3.90275,0 -7.02775,1.33334 -9.41664,4c-2.38889,2.66667 -3.56948,6.68056 -3.56948,12.0556ZM621.639,576.111c0,-4.76389 0.708326,-8.75 2.13884,-11.9861c1.05559,-2.375 2.51389,-4.51389 4.34723,-6.40277c1.83334,-1.88889 3.86111,-3.29167 6.04165,-4.20833c2.91672,-1.22222 6.27778,-1.84722 10.0834,-1.84722c6.87497,0 12.4027,2.13889 16.5277,6.40278c4.13888,4.27778 6.20836,10.2083 6.20836,17.8194c0,7.54167 -2.05555,13.4444 -6.15279,17.6944c-4.1111,4.26389 -9.59721,6.38889 -16.4583,6.38889c-6.95833,0 -12.4861,-2.11111 -16.5834,-6.34722c-4.09718,-4.25 -6.15273,-10.0833 -6.15273,-17.5139Z" style="fill:#00937f;fill-rule:nonzero;"/><path d="M683.792,572.236l6.98611,0c4.51393,0 7.34723,-0.180556 8.45833,-0.569445c1.13894,-0.375001 2.01391,-1.04167 2.6528,-1.97222c0.624975,-0.944444 0.958316,-2.11111 0.958316,-3.5c0,-1.58333 -0.430552,-2.84722 -1.26387,-3.81945c-0.833321,-0.958331 -2.02777,-1.56944 -3.55555,-1.81944c-0.750033,-0.111111 -3.05557,-0.166667 -6.87504,-0.166667l-7.36109,0l0,11.8472ZM674.361,599.194l0,-46.7083l19.8472,0c4.99999,0 8.62503,0.416668 10.8889,1.25c2.2639,0.84722 4.08332,2.33333 5.4444,4.48611c1.34722,2.13889 2.04169,4.59722 2.04169,7.36111c0,3.5 -1.04167,6.40278 -3.09722,8.68056c-2.05555,2.27778 -5.12498,3.72222 -9.20836,4.31944c2.02783,1.18056 3.72225,2.5 5.04169,3.91667c1.31944,1.41667 3.11108,3.95833 5.34719,7.58333l5.72224,9.11111l-11.2916,0l-6.79169,-10.1806c-2.43053,-3.625 -4.09724,-5.91667 -4.98613,-6.84722c-0.902748,-0.944444 -1.8472,-1.59722 -2.84723,-1.94444c-0.999959,-0.347221 -2.58331,-0.527777 -4.76386,-0.527777l-1.91669,0l0,19.5l-9.43057,0Z" style="fill:#00937f;fill-rule:nonzero;"/><rect x="721.167" y="552.486" width="9.44443" height="46.7083" style="fill:#00937f;fill-rule:nonzero;"/><path d="M739.625,599.194l0,-46.7083l34.5972,0l0,7.90278l-25.1528,0l0,10.3611l23.4028,0l0,7.90278l-23.4028,0l0,12.6389l26.0417,0l0,7.90278l-35.4861,0Z" style="fill:#00937f;fill-rule:nonzero;"/><path d="M780.722,583.958l9.18058,-0.874999c0.555547,3.08333 1.66664,5.33333 3.36107,6.79167c1.68056,1.44444 3.95838,2.15278 6.81947,2.15278c3.04165,0 5.33333,-0.638888 6.87497,-1.91667c1.54171,-1.29167 2.3056,-2.79167 2.3056,-4.51389c0,-1.09722 -0.319481,-2.04167 -0.972239,-2.81944c-0.638898,-0.777779 -1.77778,-1.44445 -3.38891,-2.02778c-1.11109,-0.375001 -3.61112,-1.05556 -7.55552,-2.02778c-5.05555,-1.25 -8.59725,-2.79167 -10.6389,-4.61111c-2.86109,-2.58333 -4.29166,-5.70833 -4.29166,-9.40278c0,-2.375 0.666682,-4.61111 2.02783,-6.68056c1.34722,-2.06945 3.27778,-3.65278 5.81945,-4.73611c2.54161,-1.08333 5.6111,-1.625 9.19444,-1.625c5.87495,0 10.2777,1.29167 13.25,3.86111c2.95836,2.56944 4.51387,6 4.66665,10.3056l-9.44443,0.416664c-0.402768,-2.40278 -1.26387,-4.125 -2.59724,-5.19445c-1.31944,-1.04167 -3.31942,-1.56944 -5.97223,-1.56944c-2.73609,0 -4.88885,0.555555 -6.4305,1.68055c-1.01395,0.722226 -1.5,1.69444 -1.5,2.90278c0,1.11111 0.472196,2.05556 1.40273,2.84722c1.18059,0.999999 4.08338,2.04167 8.66667,3.125c4.58336,1.08333 7.97221,2.19444 10.1806,3.36111c2.1944,1.15278 3.91661,2.73611 5.16663,4.73611c1.23615,2.01389 1.86113,4.48611 1.86113,7.44445c0,2.66667 -0.750033,5.18056 -2.23611,7.51389c-1.48614,2.33333 -3.58334,4.06944 -6.30557,5.20833c-2.72223,1.13889 -6.11108,1.69444 -10.1667,1.69444c-5.90274,0 -10.4445,-1.36111 -13.6111,-4.09722c-3.16664,-2.72222 -5.05555,-6.70833 -5.66667,-11.9444Z" style="fill:#00937f;fill-rule:nonzero;"/><rect x="844.5" y="552.486" width="9.44443" height="46.7083" style="fill:#00937f;fill-rule:nonzero;"/><path d="M863.028,599.194l0,-46.7083l9.13887,0l19.1806,31.3056l0,-31.3056l8.72224,0l0,46.7083l-9.43057,0l-18.8889,-30.6528l0,30.6528l-8.72218,0Z" style="fill:#00937f;fill-rule:nonzero;"/><rect x="909.778" y="552.486" width="9.43057" height="46.7083" style="fill:#00937f;fill-rule:nonzero;"/><path d="M938.75,599.194l0,-38.8056l-13.875,0l0,-7.90278l37.1389,0l0,7.90278l-13.8333,0l0,38.8056l-9.43057,0Z" style="fill:#00937f;fill-rule:nonzero;"/><rect x="967.778" y="552.486" width="9.4305" height="46.7083" style="fill:#00937f;fill-rule:nonzero;"/><path d="M1010.99,580.667l-6.48613,-17.2778l-6.29164,17.2778l12.7778,0ZM1028.32,599.194l-10.2639,0l-4.0556,-10.6111l-18.6805,0l-3.86111,10.6111l-10.0139,0l18.1805,-46.7083l10,0l18.6944,46.7083Z" style="fill:#00937f;fill-rule:nonzero;"/><path d="M1039.04,599.194l0,-38.8056l-13.875,0l0,-7.90278l37.1389,0l0,7.90278l-13.8333,0l0,38.8056l-9.43057,0Z" style="fill:#00937f;fill-rule:nonzero;"/><rect x="1068.07" y="552.486" width="9.43057" height="46.7083" style="fill:#00937f;fill-rule:nonzero;"/><path d="M1098.44,599.194l-16.7084,-46.7083l10.2222,0l11.8333,34.5694l11.4028,-34.5694l10.0278,0l-16.6389,46.7083l-10.1388,0Z" style="fill:#00937f;fill-rule:nonzero;"/><path d="M1130.06,599.194l0,-46.7083l34.6111,0l0,7.90278l-25.1667,0l0,10.3611l23.4028,0l0,7.90278l-23.4028,0l0,12.6389l26.0417,0l0,7.90278l-35.4861,0Z" style="fill:#00937f;fill-rule:nonzero;"/></g></svg>