<?xml version="1.0" standalone="no"?><!DOCTYPE svg PUBLIC "-//W3C//DTD SVG 1.1//EN" "http://www.w3.org/Graphics/SVG/1.1/DTD/svg11.dtd"><svg width="100%" height="100%" viewBox="0 0 150 77" version="1.1" xmlns="http://www.w3.org/2000/svg" xmlns:xlink="http://www.w3.org/1999/xlink" xml:space="preserve" style="fill-rule:evenodd;clip-rule:evenodd;stroke-linejoin:round;stroke-miterlimit:1.41421;"><g><path d="M102.805,6.504c-4.411,-4.107 -10.095,-6.158 -17.055,-6.158c-3.437,0 -6.758,0.631 -9.959,1.893c-3.204,1.262 -5.983,3.016 -8.339,5.262c-5.932,5.676 -9.394,12.378 -10.408,20.094c-0.959,-8.149 -4.606,-15.184 -10.962,-21.091c-4.41,-4.107 -10.094,-6.158 -17.054,-6.158c-3.439,0 -6.758,0.631 -9.959,1.893c-3.204,1.262 -5.983,3.016 -8.341,5.262c-7.153,6.849 -10.728,15.182 -10.728,25c0,8.876 2.439,16.292 7.318,22.256c3.196,3.898 7.043,6.621 11.54,8.166c0.364,0.125 0.935,-0.045 1.69,-0.448l-0.605,-4.975c-5.345,-3.896 -8.021,-12.172 -8.021,-24.836c0,-7.213 0.981,-13.18 2.946,-17.901c2.795,-6.769 7.392,-10.155 13.784,-10.155c11.102,0 16.651,8.908 16.651,26.727c0,2.877 -0.116,5.529 -0.344,7.96l2.902,2.283c10.457,-6.413 18.026,-5.942 19.618,-5.752l1.2,-0.852c-0.022,-0.753 -0.036,-1.52 -0.036,-2.31c0,-7.213 0.983,-13.18 2.947,-17.901c2.796,-6.769 7.392,-10.155 13.784,-10.155c11.102,0 16.651,8.908 16.651,26.727c0,10.072 -1.398,17.415 -4.193,22.023c-1.176,1.945 -2.622,3.469 -4.337,4.574l0.287,5.217c0.715,-0.231 1.425,-0.488 2.117,-0.782c3.492,-1.469 6.697,-3.854 9.608,-7.153c2.632,-3.052 4.685,-6.435 6.154,-10.149c1.581,-3.966 2.372,-8.306 2.372,-13.021c0,-10.068 -3.743,-18.581 -11.228,-25.54l0,0Z" style="fill:#00447c;fill-rule:nonzero;"/><path d="M132.56,6.28l0,-3.582l-18.821,0l0,3.582c1.668,0 2.709,0.4 3.126,1.204c0.528,1.001 0.791,2.704 0.791,5.119l0,41.648c0,2.301 -0.263,3.968 -0.791,4.995c-0.445,0.83 -1.488,1.247 -3.126,1.247l0,3.58l18.821,0l0,-3.58c-1.666,0 -2.71,-0.403 -3.124,-1.206c-0.255,-0.482 -0.445,-1.134 -0.576,-1.94c-0.013,-0.078 -0.024,-0.158 -0.036,-0.237c-0.117,-0.825 -0.181,-1.798 -0.181,-2.941l0,-41.65l-0.085,0c0.008,-2.448 0.284,-4.158 0.842,-5.117c0.42,-0.75 1.474,-1.122 3.16,-1.122l0,0Z" style="fill:#00447c;fill-rule:nonzero;"/><path d="M147.33,55.478c1.125,3.521 1.849,6.648 2.558,10.337c-0.763,-0.278 -1.46,-0.516 -2.089,-0.716c-0.628,-0.202 -1.246,-0.432 -1.852,-0.692c-0.644,-0.203 -1.419,-0.513 -2.325,-0.935l-3.97,-1.929c-5.855,-2.948 -10.465,-4.627 -13.829,-5.03c-2.546,-0.308 -5.353,-0.068 -8.419,0.717c-3.107,0.843 -6.677,2.331 -10.712,4.467c-3.616,1.871 -6.92,2.858 -10.041,3.573c-3.15,0.68 -6.122,0.663 -8.969,0.512c-10.345,-0.549 -17.745,-5.371 -20.174,-7.401c-3.866,-3.469 -6.658,-8.188 -6.212,-12.306c0.558,-5.16 2.843,-7.055 4.591,-9.081l-0.367,0.164c-10.76,2.563 -17.648,7.354 -32.653,19.073c-3.124,2.434 -7.453,6.26 -12.435,10.9c-0.633,-0.227 -1.226,-0.424 -1.761,-0.595c-0.629,-0.202 -1.247,-0.432 -1.851,-0.692c-0.646,-0.203 -1.42,-0.514 -2.327,-0.934l-3.325,-1.849c6.167,-5.785 12.116,-11.409 16.666,-14.628c21.623,-15.402 37.109,-22.727 51.347,-19.681c5.159,1.103 10.962,5.021 13.995,9.144c-3.635,-1.139 -7.315,-1.412 -11.025,-0.826c-2.937,0.467 -5.308,1.451 -7.109,2.955c-2.05,1.693 -2.89,3.699 -2.526,6.018c0.087,0.54 0.243,1.084 0.469,1.638c0.616,1.742 1.544,3.089 2.779,4.196c0,0 4.929,4.278 11.875,4.532c2.849,0.104 5.82,0.17 8.97,-0.51c3.121,-0.717 6.424,-1.705 10.04,-3.575c4.036,-2.136 7.606,-3.625 10.712,-4.468c3.067,-0.784 5.873,-1.023 8.419,-0.718c2.271,0.274 5.121,1.125 8.525,2.555c0,0 2.838,1.291 3.719,1.735c0,0 6.602,3.133 7.231,3.333c0.63,0.202 1.312,0.439 2.075,0.717l0,0Z" style="fill:#00afdb;fill-rule:nonzero;"/><path d="M3.454,73.893c0,0.68 0.157,1.193 0.471,1.542c0.313,0.351 0.711,0.526 1.195,0.526c0.482,0 0.877,-0.173 1.187,-0.521c0.31,-0.347 0.464,-0.867 0.464,-1.563c0,-0.686 -0.151,-1.199 -0.451,-1.536c-0.301,-0.339 -0.702,-0.509 -1.2,-0.509c-0.501,0 -0.904,0.172 -1.208,0.514c-0.306,0.342 -0.458,0.858 -0.458,1.547ZM2.207,73.935c0,-0.612 0.09,-1.124 0.273,-1.539c0.136,-0.305 0.323,-0.579 0.558,-0.822c0.235,-0.242 0.493,-0.422 0.774,-0.54c0.374,-0.156 0.805,-0.237 1.293,-0.237c0.883,0 1.589,0.275 2.119,0.822c0.531,0.549 0.796,1.31 0.796,2.286c0,0.969 -0.263,1.726 -0.791,2.271c-0.525,0.548 -1.228,0.821 -2.108,0.821c-0.892,0 -1.601,-0.272 -2.126,-0.815c-0.527,-0.546 -0.788,-1.294 -0.788,-2.247l0,0Z" style="fill:#00937f;fill-rule:nonzero;"/><path d="M12.792,74.687l1.172,0.372c-0.18,0.656 -0.478,1.143 -0.896,1.459c-0.419,0.319 -0.949,0.479 -1.592,0.479c-0.794,0 -1.447,-0.272 -1.96,-0.815c-0.513,-0.546 -0.767,-1.289 -0.767,-2.232c0,-0.998 0.255,-1.771 0.77,-2.324c0.515,-0.552 1.192,-0.829 2.03,-0.829c0.734,0 1.329,0.218 1.787,0.65c0.271,0.257 0.476,0.625 0.611,1.104l-1.198,0.288c-0.069,-0.309 -0.217,-0.556 -0.441,-0.735c-0.224,-0.18 -0.497,-0.272 -0.819,-0.272c-0.444,0 -0.803,0.161 -1.079,0.48c-0.276,0.32 -0.414,0.835 -0.414,1.549c0,0.756 0.136,1.296 0.409,1.619c0.271,0.321 0.624,0.481 1.061,0.481c0.32,0 0.596,-0.101 0.827,-0.307c0.232,-0.205 0.397,-0.528 0.499,-0.967l0,0Z" style="fill:#00937f;fill-rule:nonzero;"/><path d="M15.007,76.896l0,-5.994l4.438,0l0,1.014l-3.227,0l0,1.33l3.001,0l0,1.015l-3.001,0l0,1.622l3.339,0l0,1.013l-4.55,0l0,0Z" style="fill:#00937f;fill-rule:nonzero;"/><path d="M23.762,74.519l-0.829,-2.218l-0.809,2.218l1.638,0ZM25.985,76.896l-1.316,0l-0.518,-1.362l-2.397,0l-0.495,1.362l-1.284,0l2.331,-5.994l1.284,0l2.395,5.994Z" style="fill:#00937f;fill-rule:nonzero;"/><path d="M26.64,76.896l0,-5.994l1.171,0l2.46,4.018l0,-4.018l1.118,0l0,5.994l-1.207,0l-2.423,-3.933l0,3.933l-1.119,0l0,0Z" style="fill:#00937f;fill-rule:nonzero;"/><path d="M35.997,73.893c0,0.68 0.157,1.193 0.47,1.542c0.314,0.351 0.713,0.526 1.195,0.526c0.482,0 0.879,-0.173 1.19,-0.521c0.307,-0.347 0.462,-0.867 0.462,-1.563c0,-0.686 -0.149,-1.199 -0.452,-1.536c-0.301,-0.339 -0.701,-0.509 -1.2,-0.509c-0.499,0 -0.901,0.172 -1.207,0.514c-0.305,0.342 -0.458,0.858 -0.458,1.547l0,0ZM34.749,73.935c0,-0.612 0.091,-1.124 0.274,-1.539c0.138,-0.305 0.322,-0.579 0.558,-0.822c0.237,-0.242 0.495,-0.422 0.776,-0.54c0.372,-0.156 0.803,-0.237 1.29,-0.237c0.884,0 1.591,0.275 2.12,0.822c0.53,0.549 0.796,1.31 0.796,2.286c0,0.969 -0.264,1.726 -0.789,2.271c-0.527,0.548 -1.229,0.821 -2.11,0.821c-0.89,0 -1.599,-0.272 -2.126,-0.815c-0.526,-0.546 -0.789,-1.294 -0.789,-2.247l0,0Z" style="fill:#00937f;fill-rule:nonzero;"/><path d="M42.719,74.282l0,1.601l1.12,0c0.435,0 0.712,-0.013 0.829,-0.038c0.179,-0.033 0.327,-0.112 0.439,-0.239c0.114,-0.126 0.169,-0.296 0.169,-0.508c0,-0.18 -0.042,-0.331 -0.13,-0.458c-0.087,-0.125 -0.213,-0.215 -0.378,-0.273c-0.165,-0.057 -0.523,-0.085 -1.073,-0.085l-0.976,0l0,0ZM42.719,71.901l0,1.382l0.792,0c0.472,0 0.765,-0.006 0.878,-0.021c0.207,-0.025 0.371,-0.096 0.488,-0.214c0.12,-0.117 0.178,-0.274 0.178,-0.467c0,-0.185 -0.05,-0.334 -0.153,-0.451c-0.101,-0.115 -0.253,-0.185 -0.456,-0.209c-0.119,-0.013 -0.463,-0.02 -1.033,-0.02l-0.694,0l0,0ZM41.508,70.902l2.395,0c0.474,0 0.829,0.02 1.06,0.059c0.233,0.039 0.441,0.121 0.627,0.248c0.183,0.125 0.336,0.291 0.459,0.499c0.123,0.208 0.183,0.442 0.183,0.702c0,0.28 -0.075,0.536 -0.226,0.772c-0.151,0.233 -0.356,0.41 -0.614,0.526c0.363,0.107 0.643,0.289 0.839,0.546c0.196,0.256 0.293,0.557 0.293,0.903c0,0.273 -0.062,0.538 -0.188,0.797c-0.128,0.256 -0.301,0.463 -0.52,0.618c-0.219,0.153 -0.49,0.248 -0.811,0.283c-0.201,0.022 -0.687,0.036 -1.458,0.041l-2.039,0l0,-5.994l0,0Z" style="fill:#00937f;fill-rule:nonzero;"/><path d="M47.238,74.942l1.177,-0.113c0.072,0.396 0.214,0.684 0.431,0.871c0.218,0.186 0.507,0.277 0.876,0.277c0.39,0 0.682,-0.082 0.88,-0.246c0.198,-0.166 0.296,-0.358 0.296,-0.579c0,-0.141 -0.041,-0.263 -0.126,-0.362c-0.081,-0.1 -0.227,-0.186 -0.433,-0.261c-0.141,-0.048 -0.464,-0.135 -0.968,-0.26c-0.647,-0.16 -1.103,-0.358 -1.363,-0.591c-0.369,-0.332 -0.553,-0.733 -0.553,-1.207c0,-0.305 0.087,-0.592 0.26,-0.858c0.173,-0.265 0.422,-0.468 0.746,-0.607c0.327,-0.139 0.72,-0.209 1.18,-0.209c0.752,0 1.317,0.166 1.698,0.496c0.379,0.33 0.579,0.77 0.599,1.322l-1.212,0.053c-0.052,-0.308 -0.162,-0.528 -0.333,-0.666c-0.169,-0.134 -0.425,-0.201 -0.765,-0.201c-0.351,0 -0.625,0.071 -0.824,0.215c-0.129,0.093 -0.193,0.218 -0.193,0.373c0,0.142 0.061,0.264 0.18,0.365c0.153,0.128 0.523,0.263 1.111,0.401c0.587,0.14 1.024,0.282 1.305,0.431c0.283,0.148 0.502,0.352 0.662,0.609c0.159,0.258 0.239,0.575 0.239,0.954c0,0.343 -0.094,0.666 -0.285,0.965c-0.192,0.3 -0.461,0.522 -0.81,0.669c-0.349,0.146 -0.783,0.217 -1.303,0.217c-0.757,0 -1.339,-0.175 -1.745,-0.526c-0.406,-0.349 -0.649,-0.861 -0.727,-1.532l0,0Z" style="fill:#00937f;fill-rule:nonzero;"/><path d="M53.132,76.896l0,-5.994l4.436,0l0,1.014l-3.225,0l0,1.33l3,0l0,1.015l-3,0l0,1.622l3.339,0l0,1.013l-4.55,0l0,0Z" style="fill:#00937f;fill-rule:nonzero;"/><path d="M59.923,73.437l0.894,0c0.581,0 0.942,-0.023 1.086,-0.073c0.145,-0.048 0.258,-0.134 0.341,-0.253c0.08,-0.122 0.123,-0.272 0.123,-0.45c0,-0.202 -0.056,-0.365 -0.162,-0.49c-0.109,-0.123 -0.26,-0.201 -0.456,-0.233c-0.098,-0.014 -0.392,-0.022 -0.881,-0.022l-0.945,0l0,1.521ZM58.715,76.896l0,-5.994l2.544,0c0.641,0 1.106,0.053 1.396,0.16c0.29,0.109 0.523,0.3 0.696,0.576c0.175,0.275 0.262,0.591 0.262,0.945c0,0.449 -0.132,0.822 -0.396,1.115c-0.263,0.291 -0.657,0.477 -1.182,0.553c0.262,0.152 0.478,0.321 0.646,0.503c0.172,0.182 0.401,0.508 0.69,0.973l0.732,1.169l-1.448,0l-0.871,-1.306c-0.311,-0.465 -0.525,-0.759 -0.639,-0.879c-0.115,-0.121 -0.237,-0.205 -0.365,-0.249c-0.128,-0.045 -0.332,-0.068 -0.611,-0.068l-0.246,0l0,2.502l-1.208,0l0,0Z" style="fill:#00937f;fill-rule:nonzero;"/><path d="M66.132,76.896l-2.14,-5.994l1.311,0l1.517,4.437l1.462,-4.437l1.286,0l-2.135,5.994l-1.301,0l0,0Z" style="fill:#00937f;fill-rule:nonzero;"/><path d="M72.739,74.519l-0.83,-2.218l-0.809,2.218l1.639,0ZM74.961,76.896l-1.314,0l-0.52,-1.362l-2.395,0l-0.497,1.362l-1.282,0l2.329,-5.994l1.284,0l2.395,5.994Z" style="fill:#00937f;fill-rule:nonzero;"/><path d="M76.336,76.896l0,-4.98l-1.779,0l0,-1.014l4.763,0l0,1.014l-1.773,0l0,4.98l-1.211,0l0,0Z" style="fill:#00937f;fill-rule:nonzero;"/><path d="M80.945,73.893c0,0.68 0.156,1.193 0.471,1.542c0.313,0.351 0.71,0.526 1.195,0.526c0.482,0 0.878,-0.173 1.187,-0.521c0.31,-0.347 0.465,-0.867 0.465,-1.563c-0.001,-0.686 -0.151,-1.199 -0.452,-1.536c-0.301,-0.339 -0.702,-0.509 -1.2,-0.509c-0.501,0 -0.902,0.172 -1.208,0.514c-0.306,0.342 -0.458,0.858 -0.458,1.547ZM79.698,73.935c0,-0.612 0.09,-1.124 0.273,-1.539c0.136,-0.305 0.322,-0.579 0.558,-0.822c0.235,-0.242 0.495,-0.422 0.774,-0.54c0.375,-0.156 0.805,-0.237 1.293,-0.237c0.882,0 1.591,0.275 2.119,0.822c0.531,0.549 0.796,1.31 0.796,2.286c0,0.969 -0.263,1.726 -0.789,2.271c-0.527,0.548 -1.23,0.821 -2.11,0.821c-0.892,0 -1.601,-0.272 -2.126,-0.815c-0.525,-0.546 -0.788,-1.294 -0.788,-2.247Z" style="fill:#00937f;fill-rule:nonzero;"/><path d="M87.666,73.437l0.895,0c0.579,0 0.942,-0.023 1.084,-0.073c0.147,-0.048 0.259,-0.134 0.341,-0.253c0.08,-0.122 0.122,-0.272 0.122,-0.45c0,-0.202 -0.054,-0.365 -0.162,-0.49c-0.106,-0.123 -0.26,-0.201 -0.455,-0.233c-0.096,-0.014 -0.392,-0.022 -0.882,-0.022l-0.943,0l0,1.521ZM86.456,76.896l0,-5.994l2.545,0c0.641,0 1.106,0.053 1.396,0.16c0.29,0.109 0.523,0.3 0.698,0.576c0.173,0.275 0.262,0.591 0.262,0.945c0,0.449 -0.134,0.822 -0.397,1.115c-0.264,0.291 -0.657,0.477 -1.181,0.553c0.26,0.152 0.478,0.321 0.646,0.503c0.17,0.182 0.399,0.508 0.686,0.973l0.733,1.169l-1.447,0l-0.871,-1.306c-0.311,-0.465 -0.525,-0.759 -0.639,-0.879c-0.116,-0.121 -0.237,-0.205 -0.365,-0.249c-0.129,-0.045 -0.331,-0.068 -0.611,-0.068l-0.245,0l0,2.502l-1.21,0l0,0Z" style="fill:#00937f;fill-rule:nonzero;"/><rect x="92.457" y="70.902" width="1.211" height="5.994" style="fill:#00937f;"/><path d="M94.824,76.896l0,-5.994l4.435,0l0,1.014l-3.224,0l0,1.33l3,0l0,1.015l-3,0l0,1.622l3.338,0l0,1.013l-4.549,0Z" style="fill:#00937f;fill-rule:nonzero;"/><path d="M100.093,74.942l1.177,-0.113c0.071,0.396 0.214,0.684 0.431,0.871c0.215,0.186 0.507,0.277 0.873,0.277c0.391,0 0.685,-0.082 0.883,-0.246c0.196,-0.166 0.294,-0.358 0.294,-0.579c0,-0.141 -0.04,-0.263 -0.124,-0.362c-0.082,-0.1 -0.228,-0.186 -0.435,-0.261c-0.142,-0.048 -0.462,-0.135 -0.968,-0.26c-0.648,-0.16 -1.102,-0.358 -1.364,-0.591c-0.367,-0.332 -0.55,-0.733 -0.55,-1.207c0,-0.305 0.085,-0.592 0.26,-0.858c0.173,-0.265 0.42,-0.468 0.746,-0.607c0.326,-0.139 0.719,-0.209 1.178,-0.209c0.754,0 1.318,0.166 1.7,0.496c0.379,0.33 0.578,0.77 0.598,1.322l-1.211,0.053c-0.052,-0.308 -0.162,-0.528 -0.333,-0.666c-0.169,-0.134 -0.426,-0.201 -0.766,-0.201c-0.351,0 -0.627,0.071 -0.825,0.215c-0.129,0.093 -0.191,0.218 -0.191,0.373c0,0.142 0.06,0.264 0.179,0.365c0.151,0.128 0.524,0.263 1.111,0.401c0.588,0.14 1.023,0.282 1.306,0.431c0.281,0.148 0.502,0.352 0.662,0.609c0.158,0.258 0.238,0.575 0.238,0.954c0,0.343 -0.096,0.666 -0.286,0.965c-0.191,0.3 -0.459,0.522 -0.809,0.669c-0.348,0.146 -0.783,0.217 -1.303,0.217c-0.757,0 -1.339,-0.175 -1.745,-0.526c-0.406,-0.349 -0.648,-0.861 -0.726,-1.532Z" style="fill:#00937f;fill-rule:nonzero;"/><rect x="108.269" y="70.902" width="1.211" height="5.994" style="fill:#00937f;"/><path d="M110.645,76.896l0,-5.994l1.171,0l2.459,4.018l0,-4.018l1.118,0l0,5.994l-1.209,0l-2.421,-3.933l0,3.933l-1.118,0l0,0Z" style="fill:#00937f;fill-rule:nonzero;"/><rect x="116.638" y="70.902" width="1.209" height="5.994" style="fill:#00937f;"/><path d="M120.353,76.896l0,-4.98l-1.78,0l0,-1.014l4.762,0l0,1.014l-1.774,0l0,4.98l-1.208,0Z" style="fill:#00937f;fill-rule:nonzero;"/><rect x="124.074" y="70.902" width="1.209" height="5.994" style="fill:#00937f;"/><path d="M129.614,74.519l-0.831,-2.218l-0.807,2.218l1.638,0ZM131.836,76.896l-1.316,0l-0.52,-1.362l-2.395,0l-0.494,1.362l-1.285,0l2.331,-5.994l1.282,0l2.397,5.994Z" style="fill:#00937f;fill-rule:nonzero;"/><path d="M133.21,76.896l0,-4.98l-1.778,0l0,-1.014l4.761,0l0,1.014l-1.773,0l0,4.98l-1.21,0Z" style="fill:#00937f;fill-rule:nonzero;"/><rect x="136.932" y="70.902" width="1.209" height="5.994" style="fill:#00937f;"/><path d="M140.825,76.896l-2.141,-5.994l1.31,0l1.517,4.437l1.462,-4.437l1.286,0l-2.133,5.994l-1.301,0Z" style="fill:#00937f;fill-rule:nonzero;"/><path d="M144.88,76.896l0,-5.994l4.436,0l0,1.014l-3.225,0l0,1.33l3,0l0,1.015l-3,0l0,1.622l3.338,0l0,1.013l-4.549,0Z" style="fill:#00937f;fill-rule:nonzero;"/></g></svg>