<?xml version="1.0" standalone="no"?>
<!DOCTYPE svg PUBLIC "-//W3C//DTD SVG 1.1//EN" "http://www.w3.org/Graphics/SVG/1.1/DTD/svg11.dtd">
<svg width="100%" height="100%" viewBox="0 0 150 77" version="1.1" xmlns="http://www.w3.org/2000/svg" xmlns:xlink="http://www.w3.org/1999/xlink" xml:space="preserve" style="fill-rule:evenodd;clip-rule:evenodd;stroke-linejoin:round;stroke-miterlimit:1.41421;">
    <g>
        <path d="M88.941,22.403c-2.207,-2.054 -5.051,-3.081 -8.534,-3.081c-1.72,0 -3.381,0.316 -4.983,0.947c-1.603,0.632 -2.994,1.51 -4.173,2.633c-2.968,2.84 -4.701,6.194 -5.208,10.055c-0.48,-4.078 -2.304,-7.598 -5.485,-10.554c-2.207,-2.054 -5.05,-3.081 -8.533,-3.081c-1.721,0 -3.382,0.316 -4.984,0.947c-1.602,0.632 -2.993,1.51 -4.173,2.633c-3.579,3.427 -5.368,7.597 -5.368,12.51c0,4.441 1.221,8.152 3.662,11.136c1.599,1.95 3.524,3.313 5.774,4.086c0.182,0.063 0.468,-0.022 0.845,-0.224l-0.302,-2.49c-2.674,-1.949 -4.014,-6.09 -4.014,-12.427c0,-3.609 0.491,-6.594 1.475,-8.957c1.398,-3.387 3.698,-5.082 6.897,-5.082c5.555,0 8.331,4.458 8.331,13.375c0,1.439 -0.058,2.766 -0.172,3.982l1.452,1.142c5.233,-3.208 9.02,-2.973 9.817,-2.877l0.6,-0.427c-0.011,-0.376 -0.018,-0.761 -0.018,-1.156c0,-3.609 0.492,-6.594 1.475,-8.957c1.399,-3.387 3.699,-5.082 6.897,-5.082c5.555,0 8.332,4.458 8.332,13.375c0,5.039 -0.7,8.713 -2.099,11.019c-0.588,0.973 -1.311,1.735 -2.17,2.289l0.144,2.61c0.358,-0.115 0.713,-0.244 1.059,-0.391c1.748,-0.735 3.351,-1.928 4.808,-3.579c1.317,-1.528 2.344,-3.22 3.079,-5.079c0.791,-1.984 1.187,-4.156 1.187,-6.515c0,-5.038 -1.872,-9.297 -5.618,-12.78l0,0Z" style="fill:#00447c;fill-rule:nonzero;"/>
        <path d="M103.83,22.292l0,-1.793l-9.418,0l0,1.793c0.834,0 1.355,0.2 1.564,0.602c0.265,0.501 0.396,1.353 0.396,2.561l0,20.84c0,1.151 -0.131,1.985 -0.396,2.499c-0.222,0.415 -0.744,0.624 -1.564,0.624l0,1.792l9.418,0l0,-1.792c-0.834,0 -1.357,-0.201 -1.564,-0.603c-0.127,-0.242 -0.222,-0.568 -0.288,-0.971c-0.006,-0.039 -0.012,-0.079 -0.018,-0.118c-0.058,-0.413 -0.09,-0.9 -0.09,-1.472l0,-20.841l-0.043,0c0.004,-1.225 0.142,-2.08 0.421,-2.56c0.21,-0.375 0.738,-0.561 1.582,-0.561l0,0Z" style="fill:#00447c;fill-rule:nonzero;"/>
        <path d="M111.22,46.908c0.563,1.762 0.926,3.327 1.28,5.173c-0.382,-0.139 -0.731,-0.258 -1.045,-0.358c-0.314,-0.102 -0.623,-0.216 -0.927,-0.346c-0.322,-0.102 -0.71,-0.257 -1.163,-0.468l-1.987,-0.965c-2.929,-1.475 -5.236,-2.316 -6.92,-2.518c-1.273,-0.153 -2.678,-0.034 -4.212,0.359c-1.555,0.423 -3.341,1.167 -5.36,2.235c-1.809,0.937 -3.463,1.431 -5.024,1.788c-1.577,0.341 -3.063,0.332 -4.488,0.256c-5.177,-0.274 -8.879,-2.687 -10.095,-3.703c-1.934,-1.736 -3.331,-4.097 -3.108,-6.157c0.279,-2.582 1.423,-3.531 2.297,-4.544l-0.184,0.082c-5.384,1.282 -8.83,3.679 -16.338,9.544c-1.563,1.217 -3.729,3.132 -6.223,5.453c-0.316,-0.113 -0.613,-0.212 -0.881,-0.297c-0.314,-0.101 -0.624,-0.216 -0.926,-0.346c-0.323,-0.102 -0.71,-0.257 -1.164,-0.467l-1.664,-0.926c3.086,-2.895 6.062,-5.708 8.339,-7.32c10.82,-7.706 18.569,-11.371 25.693,-9.847c2.582,0.552 5.485,2.512 7.003,4.576c-1.819,-0.571 -3.661,-0.707 -5.517,-0.414c-1.469,0.234 -2.656,0.726 -3.557,1.478c-1.025,0.847 -1.446,1.851 -1.264,3.012c0.043,0.27 0.122,0.542 0.235,0.819c0.308,0.872 0.773,1.546 1.39,2.1c0,0 2.467,2.14 5.942,2.268c1.426,0.051 2.913,0.085 4.488,-0.256c1.563,-0.358 3.215,-0.853 5.025,-1.788c2.019,-1.069 3.806,-1.814 5.359,-2.236c1.535,-0.392 2.939,-0.512 4.213,-0.36c1.136,0.138 2.562,0.564 4.266,1.279c0,0 1.42,0.646 1.861,0.868c0,0 3.303,1.568 3.618,1.668c0.315,0.101 0.656,0.22 1.038,0.358l0,0Z" style="fill:#00afdb;fill-rule:nonzero;"/>
        <path d="M39.229,56.123c0,0.34 0.078,0.597 0.235,0.772c0.157,0.175 0.356,0.263 0.598,0.263c0.241,0 0.439,-0.086 0.594,-0.261c0.155,-0.173 0.232,-0.434 0.232,-0.782c0,-0.343 -0.075,-0.6 -0.226,-0.768c-0.15,-0.17 -0.351,-0.255 -0.6,-0.255c-0.25,0 -0.452,0.086 -0.604,0.257c-0.154,0.171 -0.229,0.429 -0.229,0.774l0,0ZM38.604,56.144c0,-0.306 0.045,-0.562 0.137,-0.77c0.068,-0.153 0.161,-0.29 0.279,-0.411c0.118,-0.121 0.247,-0.211 0.388,-0.27c0.186,-0.079 0.402,-0.119 0.646,-0.119c0.442,0 0.796,0.137 1.061,0.411c0.265,0.275 0.398,0.656 0.398,1.144c0,0.485 -0.131,0.864 -0.396,1.137c-0.263,0.273 -0.614,0.411 -1.054,0.411c-0.447,0 -0.802,-0.137 -1.064,-0.409c-0.264,-0.273 -0.395,-0.647 -0.395,-1.124Z" style="fill:#00937f;fill-rule:nonzero;"/>
        <path d="M43.9,56.521l0.587,0.186c-0.09,0.328 -0.239,0.571 -0.448,0.73c-0.21,0.159 -0.475,0.24 -0.797,0.24c-0.397,0 -0.724,-0.137 -0.98,-0.409c-0.257,-0.273 -0.384,-0.644 -0.384,-1.116c0,-0.5 0.128,-0.887 0.385,-1.163c0.258,-0.276 0.597,-0.415 1.016,-0.415c0.367,0 0.665,0.109 0.894,0.326c0.136,0.128 0.238,0.312 0.306,0.551l-0.6,0.145c-0.034,-0.155 -0.108,-0.278 -0.221,-0.368c-0.111,-0.09 -0.248,-0.136 -0.409,-0.136c-0.222,0 -0.402,0.081 -0.54,0.24c-0.138,0.16 -0.207,0.418 -0.207,0.775c0,0.378 0.068,0.648 0.204,0.81c0.136,0.161 0.313,0.241 0.532,0.241c0.159,0 0.297,-0.051 0.413,-0.154c0.116,-0.102 0.199,-0.264 0.249,-0.483l0,0Z" style="fill:#00937f;fill-rule:nonzero;"/>
        <path d="M45.009,57.626l0,-3l2.22,0l0,0.508l-1.614,0l0,0.666l1.502,0l0,0.508l-1.502,0l0,0.811l1.671,0l0,0.507l-2.277,0Z" style="fill:#00937f;fill-rule:nonzero;"/>
        <path d="M49.39,56.436l-0.415,-1.109l-0.405,1.109l0.82,0ZM50.502,57.626l-0.658,0l-0.26,-0.682l-1.199,0l-0.248,0.682l-0.642,0l1.167,-3l0.642,0l1.198,3Z" style="fill:#00937f;fill-rule:nonzero;"/>
        <path d="M50.83,57.626l0,-3l0.586,0l1.23,2.011l0,-2.011l0.56,0l0,3l-0.603,0l-1.213,-1.968l0,1.968l-0.56,0l0,0Z" style="fill:#00937f;fill-rule:nonzero;"/>
        <path d="M55.512,56.123c0,0.34 0.079,0.597 0.235,0.772c0.157,0.175 0.357,0.263 0.598,0.263c0.241,0 0.44,-0.086 0.596,-0.261c0.153,-0.173 0.231,-0.434 0.231,-0.782c0,-0.343 -0.075,-0.6 -0.226,-0.768c-0.151,-0.17 -0.351,-0.255 -0.601,-0.255c-0.25,0 -0.451,0.086 -0.604,0.257c-0.153,0.171 -0.229,0.429 -0.229,0.774ZM54.887,56.144c0,-0.306 0.046,-0.562 0.138,-0.77c0.069,-0.153 0.161,-0.29 0.279,-0.411c0.118,-0.121 0.248,-0.211 0.388,-0.27c0.187,-0.079 0.402,-0.119 0.646,-0.119c0.442,0 0.796,0.137 1.06,0.411c0.266,0.275 0.399,0.656 0.399,1.144c0,0.485 -0.133,0.864 -0.395,1.137c-0.264,0.273 -0.615,0.411 -1.056,0.411c-0.446,0 -0.8,-0.137 -1.064,-0.409c-0.263,-0.273 -0.395,-0.647 -0.395,-1.124l0,0Z" style="fill:#00937f;fill-rule:nonzero;"/>
        <path d="M58.876,56.317l0,0.802l0.56,0c0.217,0 0.356,-0.006 0.415,-0.019c0.09,-0.016 0.163,-0.056 0.219,-0.12c0.057,-0.063 0.085,-0.148 0.085,-0.254c0,-0.09 -0.021,-0.166 -0.065,-0.229c-0.044,-0.063 -0.107,-0.107 -0.189,-0.136c-0.083,-0.029 -0.262,-0.044 -0.537,-0.044l-0.488,0l0,0ZM58.876,55.127l0,0.691l0.396,0c0.236,0 0.383,-0.003 0.439,-0.011c0.104,-0.012 0.186,-0.048 0.244,-0.107c0.061,-0.058 0.09,-0.137 0.09,-0.233c0,-0.093 -0.026,-0.168 -0.078,-0.226c-0.05,-0.058 -0.125,-0.092 -0.227,-0.104c-0.06,-0.007 -0.232,-0.01 -0.518,-0.01l-0.346,0l0,0ZM58.269,54.626l1.199,0c0.237,0 0.415,0.01 0.531,0.03c0.116,0.019 0.22,0.06 0.313,0.124c0.091,0.063 0.168,0.146 0.23,0.25c0.062,0.104 0.091,0.221 0.091,0.351c0,0.14 -0.037,0.269 -0.113,0.387c-0.076,0.116 -0.178,0.205 -0.307,0.263c0.182,0.053 0.322,0.144 0.42,0.273c0.098,0.128 0.147,0.279 0.147,0.451c0,0.137 -0.031,0.27 -0.094,0.399c-0.065,0.129 -0.151,0.232 -0.261,0.31c-0.109,0.076 -0.245,0.123 -0.406,0.141c-0.1,0.012 -0.344,0.019 -0.729,0.021l-1.021,0l0,-3l0,0Z" style="fill:#00937f;fill-rule:nonzero;"/>
        <path d="M61.136,56.648l0.59,-0.057c0.036,0.198 0.107,0.343 0.216,0.436c0.108,0.094 0.253,0.139 0.437,0.139c0.196,0 0.342,-0.041 0.441,-0.123c0.099,-0.083 0.148,-0.179 0.148,-0.29c0,-0.07 -0.02,-0.131 -0.063,-0.181c-0.041,-0.05 -0.114,-0.093 -0.217,-0.131c-0.07,-0.024 -0.232,-0.067 -0.484,-0.13c-0.324,-0.08 -0.552,-0.179 -0.682,-0.296c-0.185,-0.165 -0.277,-0.366 -0.277,-0.603c0,-0.153 0.043,-0.297 0.13,-0.43c0.087,-0.132 0.211,-0.234 0.373,-0.303c0.165,-0.07 0.361,-0.105 0.591,-0.105c0.377,0 0.659,0.083 0.85,0.248c0.19,0.165 0.289,0.385 0.299,0.662l-0.606,0.026c-0.026,-0.154 -0.081,-0.264 -0.166,-0.333c-0.085,-0.067 -0.213,-0.101 -0.383,-0.101c-0.176,0 -0.313,0.036 -0.413,0.108c-0.064,0.047 -0.097,0.109 -0.097,0.187c0,0.071 0.031,0.131 0.091,0.182c0.076,0.064 0.262,0.132 0.555,0.201c0.295,0.07 0.513,0.141 0.653,0.215c0.142,0.075 0.252,0.177 0.332,0.305c0.079,0.129 0.12,0.288 0.12,0.478c0,0.171 -0.048,0.333 -0.143,0.482c-0.096,0.15 -0.231,0.262 -0.406,0.335c-0.174,0.073 -0.392,0.109 -0.651,0.109c-0.379,0 -0.67,-0.088 -0.873,-0.263c-0.204,-0.175 -0.325,-0.431 -0.365,-0.767l0,0Z" style="fill:#00937f;fill-rule:nonzero;"/>
        <path d="M64.086,57.626l0,-3l2.22,0l0,0.508l-1.614,0l0,0.666l1.501,0l0,0.508l-1.501,0l0,0.811l1.67,0l0,0.507l-2.276,0Z" style="fill:#00937f;fill-rule:nonzero;"/>
        <path d="M67.484,55.895l0.447,0c0.291,0 0.472,-0.011 0.543,-0.037c0.073,-0.024 0.13,-0.066 0.172,-0.126c0.039,-0.061 0.061,-0.136 0.061,-0.225c0,-0.102 -0.028,-0.183 -0.081,-0.245c-0.055,-0.062 -0.13,-0.101 -0.228,-0.117c-0.05,-0.007 -0.197,-0.011 -0.441,-0.011l-0.473,0l0,0.761ZM66.879,57.626l0,-3l1.273,0c0.321,0 0.554,0.027 0.699,0.08c0.145,0.055 0.262,0.15 0.348,0.289c0.088,0.137 0.131,0.296 0.131,0.473c0,0.225 -0.066,0.411 -0.198,0.557c-0.131,0.146 -0.329,0.239 -0.591,0.278c0.131,0.075 0.239,0.16 0.323,0.251c0.086,0.091 0.2,0.254 0.345,0.487l0.366,0.585l-0.724,0l-0.436,-0.653c-0.156,-0.233 -0.263,-0.38 -0.32,-0.44c-0.057,-0.061 -0.118,-0.103 -0.182,-0.125c-0.064,-0.023 -0.166,-0.034 -0.306,-0.034l-0.123,0l0,1.252l-0.605,0l0,0Z" style="fill:#00937f;fill-rule:nonzero;"/>
        <path d="M70.591,57.626l-1.071,-3l0.656,0l0.759,2.221l0.732,-2.221l0.643,0l-1.068,3l-0.651,0Z" style="fill:#00937f;fill-rule:nonzero;"/>
        <path d="M73.897,56.436l-0.415,-1.109l-0.405,1.109l0.82,0ZM75.008,57.626l-0.657,0l-0.26,-0.682l-1.199,0l-0.248,0.682l-0.642,0l1.165,-3l0.643,0l1.198,3Z" style="fill:#00937f;fill-rule:nonzero;"/>
        <path d="M75.696,57.626l0,-2.492l-0.89,0l0,-0.508l2.384,0l0,0.508l-0.887,0l0,2.492l-0.607,0Z" style="fill:#00937f;fill-rule:nonzero;"/>
        <path d="M78.003,56.123c0,0.34 0.078,0.597 0.235,0.772c0.157,0.175 0.356,0.263 0.598,0.263c0.242,0 0.44,-0.086 0.595,-0.261c0.155,-0.173 0.232,-0.434 0.232,-0.782c0,-0.343 -0.075,-0.6 -0.226,-0.768c-0.151,-0.17 -0.352,-0.255 -0.601,-0.255c-0.25,0 -0.451,0.086 -0.604,0.257c-0.153,0.171 -0.229,0.429 -0.229,0.774ZM77.379,56.144c0,-0.306 0.045,-0.562 0.136,-0.77c0.068,-0.153 0.162,-0.29 0.28,-0.411c0.117,-0.121 0.247,-0.211 0.387,-0.27c0.187,-0.079 0.402,-0.119 0.647,-0.119c0.441,0 0.796,0.137 1.06,0.411c0.266,0.275 0.398,0.656 0.398,1.144c0,0.485 -0.131,0.864 -0.394,1.137c-0.264,0.273 -0.616,0.411 -1.056,0.411c-0.446,0 -0.801,-0.137 -1.064,-0.409c-0.263,-0.273 -0.394,-0.647 -0.394,-1.124l0,0Z" style="fill:#00937f;fill-rule:nonzero;"/>
        <path d="M81.366,55.895l0.448,0c0.289,0 0.471,-0.011 0.542,-0.037c0.073,-0.024 0.13,-0.066 0.171,-0.126c0.04,-0.061 0.061,-0.136 0.061,-0.225c0,-0.102 -0.027,-0.183 -0.082,-0.245c-0.053,-0.062 -0.13,-0.101 -0.227,-0.117c-0.048,-0.007 -0.196,-0.011 -0.441,-0.011l-0.472,0l0,0.761ZM80.76,57.626l0,-3l1.274,0c0.32,0 0.553,0.027 0.698,0.08c0.145,0.055 0.262,0.15 0.35,0.289c0.086,0.137 0.131,0.296 0.131,0.473c0,0.225 -0.068,0.411 -0.199,0.557c-0.132,0.146 -0.329,0.239 -0.591,0.278c0.13,0.075 0.239,0.16 0.323,0.251c0.085,0.091 0.2,0.254 0.343,0.487l0.368,0.585l-0.725,0l-0.436,-0.653c-0.155,-0.233 -0.262,-0.38 -0.32,-0.44c-0.058,-0.061 -0.118,-0.103 -0.182,-0.125c-0.065,-0.023 -0.166,-0.034 -0.306,-0.034l-0.122,0l0,1.252l-0.606,0Z" style="fill:#00937f;fill-rule:nonzero;"/>
        <rect x="83.763" y="54.626" width="0.606" height="2.999" style="fill:#00937f;"/>
        <path d="M84.947,57.626l0,-3l2.219,0l0,0.508l-1.613,0l0,0.666l1.501,0l0,0.508l-1.501,0l0,0.811l1.671,0l0,0.507l-2.277,0Z" style="fill:#00937f;fill-rule:nonzero;"/>
        <path d="M87.584,56.648l0.589,-0.057c0.035,0.198 0.107,0.343 0.215,0.436c0.108,0.094 0.254,0.139 0.437,0.139c0.196,0 0.343,-0.041 0.442,-0.123c0.098,-0.083 0.147,-0.179 0.147,-0.29c0,-0.07 -0.02,-0.131 -0.062,-0.181c-0.041,-0.05 -0.114,-0.093 -0.217,-0.131c-0.072,-0.024 -0.232,-0.067 -0.485,-0.13c-0.324,-0.08 -0.551,-0.179 -0.682,-0.296c-0.184,-0.165 -0.275,-0.366 -0.275,-0.603c0,-0.153 0.042,-0.297 0.13,-0.43c0.086,-0.132 0.21,-0.234 0.373,-0.303c0.163,-0.07 0.36,-0.105 0.589,-0.105c0.377,0 0.66,0.083 0.851,0.248c0.189,0.165 0.289,0.385 0.299,0.662l-0.606,0.026c-0.026,-0.154 -0.081,-0.264 -0.167,-0.333c-0.084,-0.067 -0.213,-0.101 -0.383,-0.101c-0.175,0 -0.314,0.036 -0.413,0.108c-0.064,0.047 -0.095,0.109 -0.095,0.187c0,0.071 0.03,0.131 0.09,0.182c0.075,0.064 0.261,0.132 0.555,0.201c0.294,0.07 0.512,0.141 0.654,0.215c0.141,0.075 0.251,0.177 0.331,0.305c0.079,0.129 0.12,0.288 0.12,0.478c0,0.171 -0.049,0.333 -0.144,0.482c-0.096,0.15 -0.229,0.262 -0.405,0.335c-0.174,0.073 -0.392,0.109 -0.651,0.109c-0.38,0 -0.671,-0.088 -0.874,-0.263c-0.203,-0.175 -0.324,-0.431 -0.363,-0.767l0,0Z" style="fill:#00937f;fill-rule:nonzero;"/>
        <rect x="91.675" y="54.626" width="0.606" height="2.999" style="fill:#00937f;"/>
        <path d="M92.864,57.626l0,-3l0.586,0l1.23,2.011l0,-2.011l0.559,0l0,3l-0.605,0l-1.211,-1.968l0,1.968l-0.559,0l0,0Z" style="fill:#00937f;fill-rule:nonzero;"/>
        <rect x="95.863" y="54.626" width="0.605" height="2.999" style="fill:#00937f;"/>
        <path d="M97.721,57.626l0,-2.492l-0.89,0l0,-0.508l2.383,0l0,0.508l-0.888,0l0,2.492l-0.605,0Z" style="fill:#00937f;fill-rule:nonzero;"/>
        <rect x="99.583" y="54.626" width="0.605" height="2.999" style="fill:#00937f;"/>
        <path d="M102.355,56.436l-0.415,-1.109l-0.404,1.109l0.819,0ZM103.467,57.626l-0.658,0l-0.261,-0.682l-1.198,0l-0.247,0.682l-0.643,0l1.166,-3l0.642,0l1.199,3Z" style="fill:#00937f;fill-rule:nonzero;"/>
        <path d="M104.154,57.626l0,-2.492l-0.889,0l0,-0.508l2.382,0l0,0.508l-0.887,0l0,2.492l-0.606,0Z" style="fill:#00937f;fill-rule:nonzero;"/>
        <rect x="106.017" y="54.626" width="0.605" height="2.999" style="fill:#00937f;"/>
        <path d="M107.965,57.626l-1.071,-3l0.655,0l0.759,2.221l0.732,-2.221l0.643,0l-1.067,3l-0.651,0l0,0Z" style="fill:#00937f;fill-rule:nonzero;"/>
        <path d="M109.994,57.626l0,-3l2.219,0l0,0.508l-1.613,0l0,0.666l1.501,0l0,0.508l-1.501,0l0,0.811l1.67,0l0,0.507l-2.276,0Z" style="fill:#00937f;fill-rule:nonzero;"/>
    </g>
</svg>
